<?xml version="1.0" encoding="UTF-8" standalone="no"?>
<svg
   xmlns:dc="http://purl.org/dc/elements/1.1/"
   xmlns:cc="http://creativecommons.org/ns#"
   xmlns:rdf="http://www.w3.org/1999/02/22-rdf-syntax-ns#"
   xmlns:svg="http://www.w3.org/2000/svg"
   xmlns="http://www.w3.org/2000/svg"
   id="svg10"
   enable-background="new 0 0 48 48"
   viewBox="0 0 48 48"
   version="1">
  <metadata
     id="metadata16">
    <rdf:RDF>
      <cc:Work
         rdf:about="">
        <dc:format>image/svg+xml</dc:format>
        <dc:type
           rdf:resource="http://purl.org/dc/dcmitype/StillImage" />
        <dc:title></dc:title>
      </cc:Work>
    </rdf:RDF>
  </metadata>
  <defs
     id="defs14" />
  <g
     style="fill:#ffa000"
     transform="matrix(0.73333333,0,0,1,7.4259892,0)"
     id="g6">
    <polygon
       id="polygon2"
       points="22,45 18,41 18,21 30,21 30,29 28,31 30,33 30,35 28,37 30,39 30,41 26,45 " />
    <path
       id="path4"
       d="M 38,7.8 C 37.5,6 36,4.7 34.3,4.2 31.9,3.7 28.2,3 24,3 19.8,3 16.1,3.7 13.7,4.2 12,4.7 10.5,6 10,7.8 9.5,9.5 9,11.9 9,14.5 c 0,2.6 0.5,5 1,6.7 0.5,1.8 1.9,3.1 3.7,3.5 2.4,0.6 6.1,1.3 10.3,1.3 4.2,0 7.9,-0.7 10.3,-1.2 1.8,-0.4 3.2,-1.8 3.7,-3.5 0.5,-1.7 1,-4.1 1,-6.7 0,-2.7 -0.5,-5.1 -1,-6.8 z M 29,13 H 19 c -1.1,0 -2,-0.9 -2,-2 V 9 c 0,-0.6 3.1,-1 7,-1 3.9,0 7,0.4 7,1 v 2 c 0,1.1 -0.9,2 -2,2 z" />
  </g>
  <rect
     style="fill:#d68600"
     id="rect8"
     height="19"
     width="2"
     y="26"
     x="23.559322" />
</svg>
