<?xml version="1.0" encoding="UTF-8" standalone="no"?>
<!DOCTYPE svg PUBLIC "-//W3C//DTD SVG 1.1//EN" "http://www.w3.org/Graphics/SVG/1.1/DTD/svg11.dtd">
<svg width="100%" height="100%" viewBox="0 0 48 48" version="1.1" xmlns="http://www.w3.org/2000/svg" xmlns:xlink="http://www.w3.org/1999/xlink" xml:space="preserve" xmlns:serif="http://www.serif.com/" style="fill-rule:evenodd;clip-rule:evenodd;stroke-linejoin:round;stroke-miterlimit:2;">
    <g transform="matrix(2,0,0,2,0,-2056.8)">
        <g transform="matrix(0.911796,0,0,0.873805,0.555331,131.585)">
            <path d="M5,1030.4C3.895,1030.4 3,1031.3 3,1032.4L3,1050.4C3,1051.5 3.895,1052.4 5,1052.4L19,1052.4C20.105,1052.4 21,1051.5 21,1050.4L21,1032.4C21,1031.3 20.105,1030.4 19,1030.4L5,1030.4Z" style="fill:rgb(216,216,216);fill-rule:nonzero;"/>
        </g>
        <g transform="matrix(0.911796,0,0,0.873805,0.555331,131.585)">
            <path d="M6,1028.4C5.448,1028.4 5,1028.8 5,1029.4L5,1032.4C5,1032.9 5.448,1033.4 6,1033.4C6.552,1033.4 7,1032.9 7,1032.4L7,1029.4C7,1028.8 6.552,1028.4 6,1028.4ZM10,1028.4C9.448,1028.4 9,1028.8 9,1029.4L9,1032.4C9,1032.9 9.448,1033.4 10,1033.4C10.552,1033.4 11,1032.9 11,1032.4L11,1029.4C11,1028.8 10.552,1028.4 10,1028.4ZM14,1028.4C13.448,1028.4 13,1028.8 13,1029.4L13,1032.4C13,1032.9 13.448,1033.4 14,1033.4C14.552,1033.4 15,1032.9 15,1032.4L15,1029.4C15,1028.8 14.552,1028.4 14,1028.4ZM18,1028.4C17.448,1028.4 17,1028.8 17,1029.4L17,1032.4C17,1032.9 17.448,1033.4 18,1033.4C18.552,1033.4 19,1032.9 19,1032.4L19,1029.4C19,1028.8 18.552,1028.4 18,1028.4Z" style="fill:rgb(149,165,166);fill-rule:nonzero;"/>
            <rect x="6" y="1043.4" width="12" height="1" style="fill:rgb(149,165,166);"/>
            <rect x="6" y="1040.4" width="12" height="1" style="fill:rgb(149,165,166);"/>
            <rect x="6" y="1037.4" width="12" height="1" style="fill:rgb(149,165,166);"/>
            <g transform="matrix(1,0,0,1,0,1028.4)">
                <rect x="6" y="18" width="4" height="1" style="fill:rgb(149,165,166);"/>
            </g>
        </g>
        <g transform="matrix(0.911796,0,0,0.873805,0.555331,131.585)">
            <path d="M5,1032.4C5,1032.9 5.448,1033.4 6,1033.4C6.552,1033.4 7,1032.9 7,1032.4L5,1032.4ZM9,1032.4C9,1032.9 9.448,1033.4 10,1033.4C10.552,1033.4 11,1032.9 11,1032.4L9,1032.4ZM13,1032.4C13,1032.9 13.448,1033.4 14,1033.4C14.552,1033.4 15,1032.9 15,1032.4L13,1032.4ZM17,1032.4C17,1032.9 17.448,1033.4 18,1033.4C18.552,1033.4 19,1032.9 19,1032.4L17,1032.4Z" style="fill:rgb(127,140,141);fill-rule:nonzero;"/>
        </g>
        <g transform="matrix(0.911796,0,0,0.873805,0.555331,131.585)">
            <path d="M3,1049.4L3,1050.4C3,1051.5 3.895,1052.4 5,1052.4L19,1052.4C20.105,1052.4 21,1051.5 21,1050.4L21,1049.4C21,1050.5 20.105,1051.4 19,1051.4L5,1051.4C3.895,1051.4 3,1050.5 3,1049.4Z" style="fill:rgb(149,165,166);fill-rule:nonzero;"/>
        </g>
        <g transform="matrix(0.64474,0.617876,-0.64474,0.617876,705.61,455.249)">
            <path d="M-63,1003.4L-63,1016.4L-61,1018.4L-59,1016.4L-59,1003.4L-63,1003.4Z" style="fill:rgb(236,240,241);fill-rule:nonzero;"/>
            <path d="M-61,1003.4L-61,1018.4L-59,1016.4L-59,1003.4L-61,1003.4Z" style="fill:rgb(189,195,199);fill-rule:nonzero;"/>
            <rect x="-63" y="1004.4" width="4" height="11" style="fill:rgb(230,126,34);"/>
            <path d="M-61,1000.4C-62.105,1000.4 -63,1001.3 -63,1002.4L-63,1003.4L-59,1003.4L-59,1002.4C-59,1001.3 -59.895,1000.4 -61,1000.4Z" style="fill:rgb(127,140,141);fill-rule:nonzero;"/>
            <g transform="matrix(1,0,0,1,-7,1)">
                <path d="M-55.406,1016L-54,1017.4L-52.594,1016L-55.406,1016Z" style="fill:rgb(52,73,94);fill-rule:nonzero;"/>
                <path d="M-54,1016L-54,1017.4L-52.594,1016L-54,1016Z" style="fill:rgb(44,62,80);fill-rule:nonzero;"/>
            </g>
            <path d="M-61,1000.4C-62.105,1000.4 -63,1001.3 -63,1002.4L-63,1003.4L-61,1003.4L-61,1000.4Z" style="fill:rgb(149,165,166);fill-rule:nonzero;"/>
            <rect x="-61" y="1004.4" width="2" height="11" style="fill:rgb(211,84,0);"/>
        </g>
    </g>
</svg>
