<?xml version="1.0" encoding="UTF-8" standalone="no"?><!-- Generator: Gravit.io --><svg xmlns="http://www.w3.org/2000/svg" xmlns:xlink="http://www.w3.org/1999/xlink" style="isolation:isolate" viewBox="0 0 48 48" width="48pt" height="48pt"><defs><clipPath id="_clipPath_9XF8Wkv3dtlahEmPO8KNtUI9KomMyJLu"><rect width="48" height="48"/></clipPath></defs><g clip-path="url(#_clipPath_9XF8Wkv3dtlahEmPO8KNtUI9KomMyJLu)"><path d=" M 24 2 C 11.85 2 2 11.8 2 24 C 2 36 11.85 46 24 46 C 36.15 46 46 36 46 24 C 46 11.8 36.15 2 24 2 Z  M 24 10 C 31.732 10 38 16.2 38 24 C 38 31.6 31.732 38 24 38 C 16.268 38 10 31.6 10 24 C 10 16.2 16.268 10 24 10 Z " fill="rgb(154,159,162)"/><path d=" M 34 6.6 C 24.434 1 12.202 4.4 6.68 14 C 1.157 23.4 4.434 35.8 14 41.2 C 23.566 46.8 35.798 43.4 41.32 34 C 46.844 24.4 43.566 12.2 34 6.6 Z  M 26 20.4 C 27.914 21.6 28.568 24 27.464 26 C 26.36 27.8 23.914 28.4 22 27.4 C 20.086 26.2 19.431 23.8 20.536 22 C 21.64 20 24.086 19.4 26 20.4 Z " fill="rgb(158,186,204)"/><path d=" M 27 18.8 C 24.13 17 20.46 18 18.804 21 C 17.147 23.8 18.13 27.4 21 29.2 C 23.87 30.8 27.54 29.8 29.196 27 C 30.854 24 29.87 20.4 27 18.8 Z  M 26 20.4 C 27.914 21.6 28.568 24 27.464 26 C 26.36 27.8 23.914 28.4 22 27.4 C 20.086 26.2 19.431 23.8 20.536 22 C 21.64 20 24.086 19.4 26 20.4 Z " fill="rgb(236,240,241)"/><path d=" M 12.02 7.8 C 7.522 11.2 4.776 16.2 4.145 21.4 L 20.074 23.4 C 20.204 22.2 20.734 21.4 21.638 20.6 L 12.02 7.8 L 12.02 7.8 Z  M 43.846 26.2 L 27.97 24.2 C 27.84 25.4 27.256 26.2 26.354 27 L 35.972 39.8 C 40.468 36.4 43.214 31.4 43.846 26.2 L 43.846 26.2 Z " fill="rgb(214,228,232)"/><path d=" M 24 16 C 19.582 16 16 19.6 16 24 C 16 28.4 19.582 32 24 32 C 28.418 32 32 28.4 32 24 C 32 19.6 28.418 16 24 16 Z  M 24 18 C 27.314 18 30 20.6 30 24 C 30 27.2 27.314 30 24 30 C 20.686 30 18 27.2 18 24 C 18 20.6 20.686 18 24 18 Z " fill="rgb(154,159,162)"/></g></svg>