<?xml version="1.0" encoding="UTF-8" standalone="no"?>
<!-- Created with Inkscape (http://www.inkscape.org/) -->

<svg
   xmlns:dc="http://purl.org/dc/elements/1.1/"
   xmlns:cc="http://creativecommons.org/ns#"
   xmlns:rdf="http://www.w3.org/1999/02/22-rdf-syntax-ns#"
   xmlns:svg="http://www.w3.org/2000/svg"
   xmlns="http://www.w3.org/2000/svg"
   xmlns:sodipodi="http://sodipodi.sourceforge.net/DTD/sodipodi-0.dtd"
   xmlns:inkscape="http://www.inkscape.org/namespaces/inkscape"
   width="48pt"
   height="48pt"
   viewBox="0 0 16.933334 16.933333"
   version="1.1"
   id="svg2112"
   inkscape:version="0.92.4 (5da689c313, 2019-01-14)"
   sodipodi:docname="C18_Display.svg">
  <defs
     id="defs2106" />
  <sodipodi:namedview
     id="base"
     pagecolor="#ffffff"
     bordercolor="#666666"
     borderopacity="1.0"
     inkscape:pageopacity="0.0"
     inkscape:pageshadow="2"
     inkscape:zoom="7.9195959"
     inkscape:cx="-2.8571425"
     inkscape:cy="54.923727"
     inkscape:document-units="pt"
     inkscape:current-layer="layer1"
     showgrid="false"
     units="pt"
     inkscape:window-width="3840"
     inkscape:window-height="2050"
     inkscape:window-x="-12"
     inkscape:window-y="-12"
     inkscape:window-maximized="1" />
  <metadata
     id="metadata2109">
    <rdf:RDF>
      <cc:Work
         rdf:about="">
        <dc:format>image/svg+xml</dc:format>
        <dc:type
           rdf:resource="http://purl.org/dc/dcmitype/StillImage" />
        <dc:title></dc:title>
      </cc:Work>
    </rdf:RDF>
  </metadata>
  <g
     inkscape:label="Layer 1"
     inkscape:groupmode="layer"
     id="layer1"
     transform="translate(0,-280.06668)">
    <g
       transform="matrix(0.33674243,0,0,0.35277778,0.38484848,280.06668)"
       style="isolation:isolate"
       id="g882">
      <path
         style="fill:#95a5a6"
         inkscape:connector-curvature="0"
         d="m 18.271,33.952 c 0.023,0.306 0.057,0.592 0.057,0.905 0,3.371 -1.369,6.343 -3.495,8.143 h 7.334 3.666 7.334 c -2.127,-1.8 -3.495,-4.772 -3.495,-8.143 0,-0.313 0.033,-0.599 0.057,-0.905 h -3.896 -3.666 z"
         id="path872" />
      <path
         style="fill:#7f8c8d"
         inkscape:connector-curvature="0"
         d="m 18.271,33.952 c 0.023,0.181 0.057,0.543 0.057,0.905 0,0.905 -0.085,1.81 -0.286,2.714 h 11.916 c -0.201,-0.904 -0.286,-1.809 -0.286,-2.714 0,-0.362 0.033,-0.724 0.057,-0.905 h -3.896 -3.666 z"
         id="path874" />
      <path
         style="fill:#bdc3c7"
         inkscape:connector-curvature="0"
         d="M 3.833,5 C 2.821,5 2,5.706 2,6.765 v 1.764 3.53 3.529 3.53 1.764 1.765 1.765 3.529 3.53 1.764 C 2,34.118 2.821,35 3.833,35 h 1.834 23.833 11 1.833 1.834 C 45.179,35 46,34.118 46,33.235 V 31.471 19.118 17.353 15.588 12.059 8.529 6.765 C 46,5.706 45.179,5 44.167,5 H 42.333 33.167 31.333 14.833 7.5 5.667 Z"
         id="path876" />
      <rect
         style="fill:#4d6680"
         x="5"
         y="8"
         width="38"
         height="24"
         id="rect878" />
      <path
         style="fill:#3f5873"
         inkscape:connector-curvature="0"
         d="M 43,8 5,32 H 40.434 43 v -2.954 z"
         id="path880" />
    </g>
  </g>
</svg>
