<?xml version="1.0" encoding="UTF-8" standalone="no"?>
<svg
   xmlns:dc="http://purl.org/dc/elements/1.1/"
   xmlns:cc="http://creativecommons.org/ns#"
   xmlns:rdf="http://www.w3.org/1999/02/22-rdf-syntax-ns#"
   xmlns:svg="http://www.w3.org/2000/svg"
   xmlns="http://www.w3.org/2000/svg"
   xmlns:sodipodi="http://sodipodi.sourceforge.net/DTD/sodipodi-0.dtd"
   xmlns:inkscape="http://www.inkscape.org/namespaces/inkscape"
   height="48pt"
   width="48pt"
   version="1.1"
   id="svg24"
   sodipodi:docname="C26_FileSave.svg"
   inkscape:version="0.92.4 (5da689c313, 2019-01-14)">
  <metadata
     id="metadata30">
    <rdf:RDF>
      <cc:Work
         rdf:about="">
        <dc:format>image/svg+xml</dc:format>
        <dc:type
           rdf:resource="http://purl.org/dc/dcmitype/StillImage" />
        <dc:title></dc:title>
      </cc:Work>
    </rdf:RDF>
  </metadata>
  <defs
     id="defs28" />
  <sodipodi:namedview
     pagecolor="#ffffff"
     bordercolor="#666666"
     borderopacity="1"
     objecttolerance="10"
     gridtolerance="10"
     guidetolerance="10"
     inkscape:pageopacity="0"
     inkscape:pageshadow="2"
     inkscape:window-width="3840"
     inkscape:window-height="2050"
     id="namedview26"
     showgrid="false"
     units="pt"
     inkscape:zoom="9.83"
     inkscape:cx="12"
     inkscape:cy="12"
     inkscape:window-x="-12"
     inkscape:window-y="-12"
     inkscape:window-maximized="1"
     inkscape:current-layer="svg24" />
  <g
     transform="matrix(2.7777778,0,0,2.777774,-1.3333334,-2857.9961)"
     id="g22">
    <path
       d="m 5,1031.4 c -1.1046,0 -2,0.9 -2,2 v 14 c 0,1.1 0.8954,2 2,2 h 13 1 c 1.105,0 2,-0.9 2,-2 v -13 l -3,-3 z"
       id="path2"
       inkscape:connector-curvature="0"
       style="fill:#3498db" />
    <path
       d="m 7,3 v 5 c 0,0.5523 0.4477,1 1,1 h 8 c 0.552,0 1,-0.4477 1,-1 V 3 Z"
       transform="translate(0,1028.4)"
       id="path6"
       inkscape:connector-curvature="0"
       style="fill:#ecf0f1" />
    <path
       d="m 6,1040.4 c -0.5523,0 -1,0.4 -1,1 v 3 2 3 h 4 6 4 v -3 -2 -3 c 0,-0.6 -0.448,-1 -1,-1 h -4 -4 z"
       id="path8"
       inkscape:connector-curvature="0"
       style="fill:#ecf0f1" />
    <g
       id="g16"
       style="fill:#bdc3c7">
      <rect
         height="1"
         width="14"
         y="1048.4"
         x="5"
         id="rect10" />
      <rect
         height="1"
         width="10"
         y="1042.4"
         x="7"
         id="rect12" />
      <rect
         height="1"
         width="10"
         y="1044.4"
         x="7"
         id="rect14" />
    </g>
    <rect
       height="4"
       width="3"
       y="1032.4"
       x="13"
       id="rect18"
       style="fill:#3498db" />
  </g>
</svg>
