<?xml version="1.0" encoding="UTF-8" standalone="no"?>
<!DOCTYPE svg PUBLIC "-//W3C//DTD SVG 1.1//EN" "http://www.w3.org/Graphics/SVG/1.1/DTD/svg11.dtd">
<svg width="100%" height="100%" viewBox="0 0 48 48" version="1.1" xmlns="http://www.w3.org/2000/svg" xmlns:xlink="http://www.w3.org/1999/xlink" xml:space="preserve" xmlns:serif="http://www.serif.com/" style="fill-rule:evenodd;clip-rule:evenodd;stroke-linejoin:round;stroke-miterlimit:2;">
    <path id="path2" d="M40,12L22,12L18,8L8,8C5.8,8 4,9.8 4,12L4,20L44,20L44,16C44,13.8 42.2,12 40,12Z" style="fill:rgb(255,160,0);fill-rule:nonzero;"/>
    <path id="path4" d="M40,12L8,12C5.8,12 4,13.8 4,16L4,36C4,38.2 5.8,40 8,40L40,40C42.2,40 44,38.2 44,36L44,16C44,13.8 42.2,12 40,12Z" style="fill:rgb(255,202,40);fill-rule:nonzero;"/>
    <g transform="matrix(1,0,0,1,9.45665e-05,1.57568)">
        <rect id="rect822" x="20.492" y="13" width="7.015" height="2" style="fill:rgb(255,0,37);"/>
        <rect id="rect822-7" x="20.492" y="17.045" width="7.015" height="2" style="fill:rgb(255,0,37);"/>
        <rect id="rect822-7-8" x="20.492" y="21.09" width="7.015" height="2" style="fill:rgb(255,0,37);"/>
        <rect id="rect822-7-33" x="20.492" y="25.135" width="7.015" height="2" style="fill:rgb(255,0,37);"/>
        <g transform="matrix(0.941767,0,0,0.465036,11.2143,14.2783)">
            <path d="M17.301,27.646L13.576,34.097L9.852,27.646L17.301,27.646Z" style="fill:rgb(255,0,37);fill-rule:nonzero;"/>
        </g>
    </g>
</svg>
