<?xml version="1.0" encoding="UTF-8" standalone="no"?>
<!DOCTYPE svg PUBLIC "-//W3C//DTD SVG 1.1//EN" "http://www.w3.org/Graphics/SVG/1.1/DTD/svg11.dtd">
<svg width="100%" height="100%" viewBox="0 0 48 48" version="1.1" xmlns="http://www.w3.org/2000/svg" xmlns:xlink="http://www.w3.org/1999/xlink" xml:space="preserve" xmlns:serif="http://www.serif.com/" style="fill-rule:evenodd;clip-rule:evenodd;stroke-linejoin:round;stroke-miterlimit:2;">
    <g transform="matrix(0.983029,0,0,0.983029,-2.15274,-4.69129)">
        <circle cx="26.604" cy="29.187" r="20.345" style="fill:rgb(0,144,255);"/>
    </g>
    <g transform="matrix(31.8224,0,0,31.8224,16.3008,35.374)">
        <path d="M0.169,-0.218C0.169,-0.263 0.175,-0.3 0.186,-0.327C0.197,-0.354 0.217,-0.38 0.247,-0.407C0.276,-0.433 0.296,-0.454 0.306,-0.471C0.315,-0.487 0.32,-0.505 0.32,-0.523C0.32,-0.578 0.295,-0.605 0.244,-0.605C0.22,-0.605 0.201,-0.598 0.186,-0.583C0.172,-0.568 0.164,-0.548 0.164,-0.522L0.022,-0.522C0.023,-0.584 0.043,-0.633 0.082,-0.668C0.122,-0.703 0.176,-0.721 0.244,-0.721C0.313,-0.721 0.367,-0.704 0.405,-0.671C0.443,-0.637 0.462,-0.59 0.462,-0.529C0.462,-0.501 0.456,-0.475 0.443,-0.451C0.431,-0.426 0.409,-0.399 0.378,-0.369L0.339,-0.331C0.314,-0.307 0.3,-0.28 0.296,-0.248L0.294,-0.218L0.169,-0.218ZM0.155,-0.068C0.155,-0.09 0.163,-0.108 0.177,-0.122C0.192,-0.136 0.211,-0.143 0.234,-0.143C0.257,-0.143 0.276,-0.136 0.291,-0.122C0.306,-0.108 0.313,-0.09 0.313,-0.068C0.313,-0.047 0.306,-0.029 0.292,-0.015C0.277,-0.001 0.258,0.006 0.234,0.006C0.211,0.006 0.191,-0.001 0.177,-0.015C0.163,-0.029 0.155,-0.047 0.155,-0.068Z" style="fill:white;fill-rule:nonzero;"/>
    </g>
</svg>
