<?xml version="1.0" encoding="UTF-8" standalone="no"?>
<!DOCTYPE svg PUBLIC "-//W3C//DTD SVG 1.1//EN" "http://www.w3.org/Graphics/SVG/1.1/DTD/svg11.dtd">
<svg width="100%" height="100%" viewBox="0 0 48 48" version="1.1" xmlns="http://www.w3.org/2000/svg" xmlns:xlink="http://www.w3.org/1999/xlink" xml:space="preserve" xmlns:serif="http://www.serif.com/" style="fill-rule:evenodd;clip-rule:evenodd;stroke-linejoin:round;stroke-miterlimit:2;">
    <g transform="matrix(1.76777,1.76777,-1.76777,1.76777,1915.49,-1651.82)">
        <g>
            <path d="M-63,1003.4L-63,1016.4L-61,1018.4L-59,1016.4L-59,1003.4L-63,1003.4Z" style="fill:rgb(236,240,241);fill-rule:nonzero;"/>
            <path d="M-61,1003.4L-61,1018.4L-59,1016.4L-59,1003.4L-61,1003.4Z" style="fill:rgb(189,195,199);fill-rule:nonzero;"/>
            <rect x="-63" y="1004.4" width="4" height="11" style="fill:rgb(230,126,34);"/>
            <path d="M-61,1000.4C-62.105,1000.4 -63,1001.3 -63,1002.4L-63,1003.4L-59,1003.4L-59,1002.4C-59,1001.3 -59.895,1000.4 -61,1000.4Z" style="fill:rgb(127,140,141);fill-rule:nonzero;"/>
            <g transform="matrix(1,0,0,1,-7,1)">
                <path d="M-55.406,1016L-54,1017.4L-52.594,1016L-55.406,1016Z" style="fill:rgb(60,84,108);fill-rule:nonzero;"/>
                <path d="M-54,1016L-54,1017.4L-52.594,1016L-54,1016Z" style="fill:rgb(77,91,106);fill-rule:nonzero;"/>
            </g>
            <path d="M-61,1000.4C-62.105,1000.4 -63,1001.3 -63,1002.4L-63,1003.4L-61,1003.4L-61,1000.4Z" style="fill:rgb(149,165,166);fill-rule:nonzero;"/>
            <rect x="-61" y="1004.4" width="2" height="11" style="fill:rgb(211,84,0);"/>
        </g>
    </g>
</svg>
