<?xml version="1.0" encoding="UTF-8" standalone="no"?>
<!DOCTYPE svg PUBLIC "-//W3C//DTD SVG 1.1//EN" "http://www.w3.org/Graphics/SVG/1.1/DTD/svg11.dtd">
<svg width="100%" height="100%" viewBox="0 0 48 48" version="1.1" xmlns="http://www.w3.org/2000/svg" xmlns:xlink="http://www.w3.org/1999/xlink" xml:space="preserve" xmlns:serif="http://www.serif.com/" style="fill-rule:evenodd;clip-rule:evenodd;stroke-linejoin:round;stroke-miterlimit:2;">
    <g transform="matrix(2,0,0,2,0,-2056.8)">
        <g>
            <g transform="matrix(1,0,0,1,-1,0)">
                <path d="M6.094,1029.5L6.094,1030.5L10,1034.4L9,1037.4L6,1038.4L2.094,1034.5C2.039,1034.8 2,1035 2,1035.4C2,1035.4 1.996,1035.5 2,1035.6C1.996,1035.7 2,1035.8 2,1035.9C2,1038.9 4.462,1041.4 7.5,1041.4C7.959,1041.4 8.387,1041.3 8.813,1041.2L10.969,1043.3L15,1047.4L18,1050.4C18.507,1050.9 19.214,1051.2 20,1051.2C21.541,1051.2 22.781,1050 22.781,1048.4C22.781,1047.6 22.487,1046.9 22,1046.4L21.969,1046.3L19,1043.4L14.969,1039.3L12.812,1037.2C12.918,1036.7 13,1036.3 13,1035.9C13,1032.8 10.538,1030.4 7.5,1030.4L7.094,1030.4L7.094,1029.5L6.094,1029.5ZM20,1046.9C20.828,1046.9 21.5,1047.5 21.5,1048.4C21.5,1049.2 20.828,1049.9 20,1049.9C19.172,1049.9 18.5,1049.2 18.5,1048.4C18.5,1047.5 19.172,1046.9 20,1046.9Z" style="fill:rgb(127,140,141);fill-rule:nonzero;"/>
                <path d="M7,1029.4C6.687,1029.4 6.391,1029.4 6.094,1029.5L10,1033.4L9,1036.4L6,1037.4L2.094,1033.5C2.039,1033.8 2,1034 2,1034.4C2,1034.4 1.996,1034.5 2,1034.6C1.996,1034.7 2,1034.8 2,1034.9C2,1037.9 4.462,1040.4 7.5,1040.4C7.959,1040.4 8.387,1040.3 8.813,1040.2L10.969,1042.3L15,1046.4L18,1049.4C18.507,1049.9 19.214,1050.2 20,1050.2C21.541,1050.2 22.781,1049 22.781,1047.4C22.781,1046.6 22.487,1045.9 22,1045.4L21.969,1045.3L19,1042.4L14.969,1038.3L12.812,1036.2C12.918,1035.7 13,1035.3 13,1034.9C13,1031.8 10.538,1029.4 7.5,1029.4L7,1029.4ZM20,1045.9C20.828,1045.9 21.5,1046.5 21.5,1047.4C21.5,1048.2 20.828,1048.9 20,1048.9C19.172,1048.9 18.5,1048.2 18.5,1047.4C18.5,1046.5 19.172,1045.9 20,1045.9Z" style="fill:rgb(149,165,166);fill-rule:nonzero;"/>
            </g>
            <path d="M11,1038.4L9.031,1040.3L9,1040.4C9.007,1040.4 8.994,1040.4 9,1040.4C8.999,1040.4 8.997,1040.4 9,1040.5C9.077,1040.7 9.063,1041 9,1041.4L9.969,1042.3L12,1044.4C12.365,1044.3 12.719,1044.3 13,1044.4L15,1042.4L13.5,1040.9L15,1039.4L14,1038.4L12.5,1039.9L11,1038.4Z" style="fill:rgb(127,140,141);fill-rule:nonzero;"/>
            <path d="M11.5,1039.9L12.5,1040.9L21.5,1031.9L20.5,1030.9L11.5,1039.9Z" style="fill:rgb(189,195,199);fill-rule:nonzero;"/>
            <path d="M21,1031.4L12,1040.4L12.5,1040.9L21.5,1031.9L21,1031.4Z" style="fill:rgb(149,165,166);fill-rule:nonzero;"/>
            <path d="M22,1029.4L19.5,1030.9L21.5,1032.9L23,1030.4L22,1029.4Z" style="fill:rgb(149,165,166);fill-rule:nonzero;"/>
            <g>
                <path d="M11,1037.4L9,1039.4C9.337,1040.2 8.584,1041.8 8,1042.4C7.416,1042.9 5.884,1043.7 5,1043.4L1,1047.4L5,1051.4L9,1047.4C8.663,1046.5 9.416,1044.9 10,1044.4C10.584,1043.8 12.116,1043 13,1043.4L15,1041.4L11,1037.4Z" style="fill:rgb(243,156,18);fill-rule:nonzero;"/>
                <path d="M11,1037.4L9,1039.4C9.337,1040.2 8.584,1041.8 8,1042.4C7.416,1042.9 5.884,1043.7 5,1043.4L1,1047.4L3,1049.4L13,1039.4L11,1037.4Z" style="fill:rgb(241,196,15);fill-rule:nonzero;"/>
                <path d="M9.031,1039.3L9,1039.4C9.011,1039.4 8.991,1039.4 9,1039.5C9.01,1039.4 9.023,1039.4 9.031,1039.3ZM14.5,1040.9L13,1042.4C12.116,1042 10.584,1042.8 10,1043.4C9.435,1043.9 8.742,1045.4 9,1046.3C9.176,1045.5 9.62,1044.7 10,1044.4C10.584,1043.8 12.116,1043 13,1043.4L15,1041.4L14.5,1040.9ZM8.969,1046.4L5,1050.4L1.5,1046.9L1,1047.4L5,1051.4L9,1047.4C8.895,1047.1 8.9,1046.7 8.969,1046.4Z" style="fill:rgb(230,126,34);fill-rule:nonzero;"/>
            </g>
        </g>
    </g>
</svg>
