<?xml version="1.0" encoding="UTF-8" standalone="no"?>
<!DOCTYPE svg PUBLIC "-//W3C//DTD SVG 1.1//EN" "http://www.w3.org/Graphics/SVG/1.1/DTD/svg11.dtd">
<svg width="100%" height="100%" viewBox="0 0 48 48" version="1.1" xmlns="http://www.w3.org/2000/svg" xmlns:xlink="http://www.w3.org/1999/xlink" xml:space="preserve" xmlns:serif="http://www.serif.com/" style="fill-rule:evenodd;clip-rule:evenodd;stroke-linejoin:round;stroke-miterlimit:2;">
    <g transform="matrix(1.79561,0,0,1.79561,2.43561,2.30747)">
        <path d="M21.086,8.255L20.399,8.741C19.912,9.171 19.499,9.681 19.169,10.246C18.739,11.016 18.519,11.886 18.525,12.766C18.54,13.849 18.815,14.801 19.365,15.626C19.752,16.226 20.269,16.74 20.899,17.162C21.209,17.372 21.481,17.517 21.739,17.612C21.619,17.987 21.487,18.352 21.334,18.712C20.987,19.519 20.574,20.292 20.084,21.022C19.652,21.652 19.312,22.122 19.054,22.432C18.652,22.912 18.264,23.272 17.874,23.529C17.444,23.814 16.939,23.965 16.422,23.965C16.072,23.98 15.722,23.935 15.388,23.838C15.098,23.743 14.812,23.636 14.532,23.515C14.239,23.381 13.936,23.267 13.627,23.175C13.247,23.075 12.857,23.027 12.463,23.028C12.063,23.028 11.673,23.078 11.303,23.173C10.993,23.261 10.693,23.369 10.396,23.498C9.976,23.673 9.701,23.788 9.541,23.838C9.217,23.934 8.885,23.992 8.551,24.013C8.031,24.013 7.547,23.863 7.065,23.563L7.078,23.55C6.605,23.234 6.185,22.847 5.834,22.4C5.451,21.937 5.096,21.45 4.77,20.946C4.004,19.826 3.405,18.601 2.99,17.31C2.58,16.08 2.343,14.892 2.28,13.729C2.987,13.101 3.846,12.263 4.738,12.081C6.29,11.764 7.893,12.304 9.444,12.376C10.327,12.417 11.084,12.291 11.938,12.081C12.518,11.938 13.224,11.932 13.742,11.629C14.212,11.355 16.734,10.287 17.473,9.876C18.677,9.204 19.738,8.297 21.086,8.255Z" style="fill:rgb(75,152,209);"/>
    </g>
    <g transform="matrix(1.79561,0,0,1.79561,2.46527,2.44192)">
        <path d="M2.277,13.661L2.247,12.963C2.247,11.393 2.587,10.023 3.249,8.873C3.739,7.973 4.469,7.22 5.349,6.691C6.199,6.161 7.189,5.871 8.189,5.851C8.539,5.851 8.919,5.901 9.319,6.001C9.609,6.081 9.959,6.211 10.389,6.371C10.939,6.581 11.239,6.711 11.339,6.741C11.659,6.861 11.929,6.911 12.139,6.911C12.299,6.911 12.529,6.861 12.784,6.781C12.929,6.731 13.204,6.641 13.594,6.471C13.98,6.331 14.286,6.211 14.529,6.121C14.899,6.011 15.257,5.911 15.579,5.861C15.969,5.801 16.356,5.781 16.727,5.811C17.437,5.861 18.087,6.011 18.667,6.231C19.683,6.639 20.457,7.276 21.07,8.181C20.574,8.585 19.562,9.507 19.562,9.507C19.562,9.507 17.266,12.28 15.634,12.735C13.885,13.223 10.839,12.556 9.072,12.434C7.723,12.341 6.168,11.802 5.036,12.006C3.981,12.196 2.984,13.038 2.277,13.661Z" style="fill:rgb(104,183,240);"/>
    </g>
    <g transform="matrix(1.79561,0,0,1.79561,2.46527,2.44192)">
        <path d="M13.932,5.09C13.252,5.43 12.606,5.574 11.959,5.526C11.859,4.88 11.959,4.216 12.229,3.489C12.469,2.869 12.789,2.309 13.229,1.809C13.689,1.289 14.239,0.859 14.859,0.549C15.519,0.209 16.149,0.029 16.749,-0.001C16.829,0.679 16.749,1.349 16.499,2.069C16.271,2.709 15.931,3.299 15.499,3.829C15.064,4.349 14.524,4.779 13.913,5.089L13.932,5.09Z" style="fill:rgb(103,183,240);"/>
    </g>
</svg>
