<?xml version="1.0" encoding="UTF-8" standalone="no"?>
<!DOCTYPE svg PUBLIC "-//W3C//DTD SVG 1.1//EN" "http://www.w3.org/Graphics/SVG/1.1/DTD/svg11.dtd">
<svg width="100%" height="100%" viewBox="0 0 48 48" version="1.1" xmlns="http://www.w3.org/2000/svg" xmlns:xlink="http://www.w3.org/1999/xlink" xml:space="preserve" xmlns:serif="http://www.serif.com/" style="fill-rule:evenodd;clip-rule:evenodd;stroke-linejoin:round;stroke-miterlimit:2;">
    <g transform="matrix(1.83333,0,0,1.83333,2,-1884.29)">
        <g transform="matrix(1.02273,0,0,0.886365,-0.272728,120.043)">
            <rect x="0" y="1031.4" width="24" height="14" style="fill:rgb(22,160,133);"/>
            <rect x="0" y="1032.4" width="24" height="14" style="fill:rgb(26,188,156);"/>
            <path d="M5,1033.4C5,1035.6 3.209,1037.4 1,1037.4L1,1041.3C3.209,1041.3 5,1043.1 5,1045.4L19,1045.4L19,1045.3C19,1043.1 20.791,1041.3 23,1041.3L23,1037.4C20.791,1037.4 19,1035.6 19,1033.4L5,1033.4Z" style="fill:rgb(236,240,241);fill-rule:nonzero;"/>
            <g transform="matrix(1,0,0,1,0,1028.4)">
                <path d="M16,11C16,13.761 14.209,16 12,16C9.791,16 8,13.761 8,11C8,8.239 9.791,6 12,6C14.209,6 16,8.239 16,11Z" style="fill:rgb(26,188,156);fill-rule:nonzero;"/>
            </g>
            <g transform="matrix(8.00001,0,0,9.23078,9.54947,1042.51)">
                <path d="M0.392,-0.136C0.392,-0.117 0.393,-0.103 0.395,-0.094C0.397,-0.084 0.401,-0.076 0.406,-0.07C0.411,-0.064 0.419,-0.059 0.429,-0.056C0.439,-0.052 0.452,-0.05 0.467,-0.048C0.483,-0.046 0.503,-0.045 0.528,-0.044L0.528,0L0.106,0L0.106,-0.044C0.143,-0.046 0.168,-0.048 0.184,-0.051C0.199,-0.054 0.211,-0.058 0.219,-0.063C0.227,-0.069 0.233,-0.077 0.237,-0.087C0.241,-0.097 0.243,-0.113 0.243,-0.136L0.243,-0.489C0.243,-0.503 0.24,-0.512 0.235,-0.518C0.23,-0.524 0.223,-0.527 0.214,-0.527C0.206,-0.527 0.195,-0.523 0.18,-0.516C0.165,-0.508 0.141,-0.493 0.107,-0.47L0.077,-0.521L0.332,-0.674L0.395,-0.674C0.393,-0.643 0.392,-0.6 0.392,-0.544L0.392,-0.136Z" style="fill:white;fill-rule:nonzero;"/>
            </g>
        </g>
        <g transform="matrix(1.9176,0,0,1.1179,17.9635,-117.595)">
            <g transform="matrix(1,0,0,1,-18.773,13.418)">
                <g transform="matrix(0.52148,0,0,0.89455,-9.6523,1024.7)">
                    <path d="M40,5C39.125,5 38.358,5.202 37.812,5.5L37,5.5L37,6.5C37,7.329 38.343,8 40,8C41.657,8 43,7.329 43,6.5L43,5.5L42.188,5.5C41.642,5.202 40.875,5 40,5Z" style="fill:rgb(243,156,18);fill-rule:nonzero;"/>
                </g>
                <g transform="matrix(0.52148,0,0,0.89455,-9.1309,1022.9)">
                    <path d="M42,7.5C42,8.328 40.657,9 39,9C37.343,9 36,8.328 36,7.5C36,6.672 37.343,6 39,6C40.657,6 42,6.672 42,7.5Z" style="fill:rgb(241,196,15);fill-rule:nonzero;"/>
                </g>
            </g>
            <g>
                <g transform="matrix(1,0,0,1,-18.773,11.629)">
                    <g transform="matrix(0.52148,0,0,0.89455,-9.6523,1024.7)">
                        <path d="M40,5C39.125,5 38.358,5.202 37.812,5.5L37,5.5L37,6.5C37,7.329 38.343,8 40,8C41.657,8 43,7.329 43,6.5L43,5.5L42.188,5.5C41.642,5.202 40.875,5 40,5Z" style="fill:rgb(243,156,18);fill-rule:nonzero;"/>
                    </g>
                    <g transform="matrix(0.52148,0,0,0.89455,-9.1309,1022.9)">
                        <path d="M42,7.5C42,8.328 40.657,9 39,9C37.343,9 36,8.328 36,7.5C36,6.672 37.343,6 39,6C40.657,6 42,6.672 42,7.5Z" style="fill:rgb(241,196,15);fill-rule:nonzero;"/>
                    </g>
                </g>
                <g transform="matrix(1,0,0,1,-18.773,9.8401)">
                    <g transform="matrix(0.52148,0,0,0.89455,-9.6523,1024.7)">
                        <path d="M40,5C39.125,5 38.358,5.202 37.812,5.5L37,5.5L37,6.5C37,7.329 38.343,8 40,8C41.657,8 43,7.329 43,6.5L43,5.5L42.188,5.5C41.642,5.202 40.875,5 40,5Z" style="fill:rgb(243,156,18);fill-rule:nonzero;"/>
                    </g>
                    <g transform="matrix(0.52148,0,0,0.89455,-9.1309,1022.9)">
                        <path d="M42,7.5C42,8.328 40.657,9 39,9C37.343,9 36,8.328 36,7.5C36,6.672 37.343,6 39,6C40.657,6 42,6.672 42,7.5Z" style="fill:rgb(241,196,15);fill-rule:nonzero;"/>
                    </g>
                </g>
                <g transform="matrix(1,0,0,1,-18.773,8.0509)">
                    <g transform="matrix(0.52148,0,0,0.89455,-9.6523,1024.7)">
                        <path d="M40,5C39.125,5 38.358,5.202 37.812,5.5L37,5.5L37,6.5C37,7.329 38.343,8 40,8C41.657,8 43,7.329 43,6.5L43,5.5L42.188,5.5C41.642,5.202 40.875,5 40,5Z" style="fill:rgb(243,156,18);fill-rule:nonzero;"/>
                    </g>
                    <g transform="matrix(0.52148,0,0,0.89455,-9.1309,1022.9)">
                        <path d="M42,7.5C42,8.328 40.657,9 39,9C37.343,9 36,8.328 36,7.5C36,6.672 37.343,6 39,6C40.657,6 42,6.672 42,7.5Z" style="fill:rgb(241,196,15);fill-rule:nonzero;"/>
                    </g>
                </g>
                <g transform="matrix(1,0,0,1,-15.123,13.418)">
                    <g transform="matrix(0.52148,0,0,0.89455,-9.6523,1024.7)">
                        <path d="M40,5C39.125,5 38.358,5.202 37.812,5.5L37,5.5L37,6.5C37,7.329 38.343,8 40,8C41.657,8 43,7.329 43,6.5L43,5.5L42.188,5.5C41.642,5.202 40.875,5 40,5Z" style="fill:rgb(243,156,18);fill-rule:nonzero;"/>
                    </g>
                    <g transform="matrix(0.52148,0,0,0.89455,-9.1309,1022.9)">
                        <path d="M42,7.5C42,8.328 40.657,9 39,9C37.343,9 36,8.328 36,7.5C36,6.672 37.343,6 39,6C40.657,6 42,6.672 42,7.5Z" style="fill:rgb(241,196,15);fill-rule:nonzero;"/>
                    </g>
                </g>
                <g transform="matrix(1,0,0,1,-14.08,12.524)">
                    <g transform="matrix(0.52148,0,0,0.89455,-9.6523,1024.7)">
                        <path d="M40,5C39.125,5 38.358,5.202 37.812,5.5L37,5.5L37,6.5C37,7.329 38.343,8 40,8C41.657,8 43,7.329 43,6.5L43,5.5L42.188,5.5C41.642,5.202 40.875,5 40,5Z" style="fill:rgb(243,156,18);fill-rule:nonzero;"/>
                    </g>
                    <g transform="matrix(0.52148,0,0,0.89455,-9.1309,1022.9)">
                        <path d="M42,7.5C42,8.328 40.657,9 39,9C37.343,9 36,8.328 36,7.5C36,6.672 37.343,6 39,6C40.657,6 42,6.672 42,7.5Z" style="fill:rgb(241,196,15);fill-rule:nonzero;"/>
                    </g>
                </g>
                <g transform="matrix(1,0,0,1,-18.773,6.2618)">
                    <g transform="matrix(0.52148,0,0,0.89455,-9.6523,1024.7)">
                        <path d="M40,5C39.125,5 38.358,5.202 37.812,5.5L37,5.5L37,6.5C37,7.329 38.343,8 40,8C41.657,8 43,7.329 43,6.5L43,5.5L42.188,5.5C41.642,5.202 40.875,5 40,5Z" style="fill:rgb(243,156,18);fill-rule:nonzero;"/>
                    </g>
                    <g transform="matrix(0.52148,0,0,0.89455,-9.1309,1022.9)">
                        <path d="M42,7.5C42,8.328 40.657,9 39,9C37.343,9 36,8.328 36,7.5C36,6.672 37.343,6 39,6C40.657,6 42,6.672 42,7.5Z" style="fill:rgb(241,196,15);fill-rule:nonzero;"/>
                    </g>
                </g>
            </g>
        </g>
    </g>
</svg>
